<?xml version="1.0" encoding="UTF-8"?>
<svg xmlns="http://www.w3.org/2000/svg" xmlns:xlink="http://www.w3.org/1999/xlink" width="810pt" height="809.999993pt" viewBox="0 0 810 809.999993" version="1.2">
<defs>
<clipPath id="clip1">
  <path d="M 328 79 L 741 79 L 741 677 L 328 677 Z M 328 79 "/>
</clipPath>
<clipPath id="clip2">
  <path d="M 260.226562 149.550781 L 614.117188 68.667969 L 749.621094 661.550781 L 395.730469 742.429688 Z M 260.226562 149.550781 "/>
</clipPath>
<clipPath id="clip3">
  <path d="M 616.273438 68.175781 L 262.382812 149.058594 L 397.886719 741.9375 L 751.777344 661.058594 Z M 616.273438 68.175781 "/>
</clipPath>
</defs>
<g id="surface1">
<path style=" stroke:none;fill-rule:nonzero;fill:rgb(15.689087%,3.919983%,39.219666%);fill-opacity:1;" d="M 134.523438 731.800781 L 618 445.980469 C 639.113281 435.472656 649.671875 421.808594 649.671875 408.148438 C 649.671875 394.488281 639.113281 380.828125 618 370.320312 L 134.523438 76.089844 C 93.355469 55.074219 58.519531 76.089844 58.519531 122.328125 L 58.519531 685.566406 C 58.519531 731.800781 92.296875 752.820312 134.523438 731.800781 Z M 134.523438 731.800781 "/>
<g clip-path="url(#clip1)" clip-rule="nonzero">
<g clip-path="url(#clip2)" clip-rule="nonzero">
<g clip-path="url(#clip3)" clip-rule="nonzero">
<path style=" stroke:none;fill-rule:nonzero;fill:rgb(70.979309%,58.428955%,96.469116%);fill-opacity:1;" d="M 730.738281 647.75 C 731.800781 646.0625 732.78125 644.324219 733.671875 642.535156 C 734.566406 640.75 735.371094 638.921875 736.085938 637.054688 C 736.796875 635.1875 737.417969 633.289062 737.945312 631.359375 C 738.472656 629.429688 738.902344 627.480469 739.238281 625.507812 C 739.574219 623.535156 739.808594 621.550781 739.949219 619.554688 C 740.089844 617.558594 740.132812 615.558594 740.074219 613.558594 C 740.019531 611.558594 739.863281 609.566406 739.609375 607.578125 C 739.359375 605.59375 739.007812 603.625 738.5625 601.671875 C 738.117188 599.71875 737.578125 597.796875 736.941406 595.898438 C 736.304688 593.996094 735.578125 592.136719 734.761719 590.308594 C 733.941406 588.480469 733.039062 586.699219 732.042969 584.960938 C 731.050781 583.226562 729.976562 581.539062 728.816406 579.910156 C 727.65625 578.277344 726.421875 576.707031 725.109375 575.199219 C 723.796875 573.691406 722.414062 572.25 720.960938 570.878906 C 719.507812 569.507812 717.988281 568.210938 716.40625 566.988281 C 714.828125 565.769531 713.1875 564.628906 711.496094 563.566406 L 472.28125 413.011719 L 622.34375 173.484375 C 623.40625 171.792969 624.386719 170.054688 625.28125 168.269531 C 626.171875 166.480469 626.976562 164.652344 627.691406 162.785156 C 628.402344 160.917969 629.023438 159.023438 629.550781 157.09375 C 630.078125 155.164062 630.507812 153.210938 630.84375 151.238281 C 631.179688 149.269531 631.417969 147.285156 631.558594 145.289062 C 631.695312 143.289062 631.738281 141.292969 631.679688 139.292969 C 631.625 137.289062 631.46875 135.296875 631.21875 133.3125 C 630.964844 131.324219 630.617188 129.355469 630.167969 127.40625 C 629.722656 125.453125 629.183594 123.527344 628.546875 121.628906 C 627.914062 119.730469 627.1875 117.867188 626.367188 116.039062 C 625.550781 114.214844 624.644531 112.433594 623.652344 110.695312 C 622.65625 108.957031 621.582031 107.273438 620.421875 105.640625 C 619.265625 104.011719 618.027344 102.441406 616.714844 100.933594 C 615.402344 99.425781 614.019531 97.984375 612.566406 96.613281 C 611.113281 95.238281 609.59375 93.945312 608.015625 92.722656 C 606.433594 91.5 604.796875 90.359375 603.101562 89.300781 C 601.417969 88.226562 599.6875 87.238281 597.90625 86.339844 C 596.125 85.4375 594.304688 84.625 592.445312 83.90625 C 590.582031 83.183594 588.691406 82.554688 586.769531 82.023438 C 584.851562 81.488281 582.90625 81.050781 580.941406 80.710938 C 578.980469 80.371094 577.003906 80.125 575.015625 79.980469 C 573.027344 79.835938 571.039062 79.789062 569.046875 79.84375 C 567.054688 79.894531 565.070312 80.046875 563.09375 80.296875 C 561.117188 80.546875 559.160156 80.890625 557.21875 81.335938 C 555.277344 81.78125 553.359375 82.320312 551.472656 82.953125 C 549.585938 83.585938 547.730469 84.3125 545.914062 85.128906 C 544.097656 85.949219 542.328125 86.855469 540.597656 87.847656 C 538.871094 88.839844 537.199219 89.917969 535.578125 91.078125 C 533.957031 92.238281 532.394531 93.476562 530.898438 94.792969 C 529.398438 96.109375 527.96875 97.496094 526.605469 98.953125 C 525.242188 100.410156 523.957031 101.929688 522.742188 103.515625 C 521.53125 105.101562 520.398438 106.746094 519.347656 108.441406 L 337.617188 399.496094 C 336.554688 401.1875 335.574219 402.925781 334.679688 404.710938 C 333.789062 406.5 332.984375 408.328125 332.269531 410.195312 C 331.558594 412.0625 330.9375 413.957031 330.410156 415.886719 C 329.882812 417.816406 329.453125 419.769531 329.117188 421.742188 C 328.78125 423.710938 328.542969 425.695312 328.40625 427.691406 C 328.265625 429.691406 328.222656 431.6875 328.28125 433.6875 C 328.335938 435.691406 328.492188 437.683594 328.742188 439.667969 C 328.996094 441.65625 329.34375 443.625 329.792969 445.574219 C 330.238281 447.527344 330.777344 449.453125 331.414062 451.351562 C 332.046875 453.25 332.777344 455.113281 333.59375 456.941406 C 334.410156 458.765625 335.316406 460.546875 336.3125 462.285156 C 337.304688 464.023438 338.378906 465.707031 339.539062 467.339844 C 340.695312 468.96875 341.933594 470.539062 343.246094 472.046875 C 344.558594 473.554688 345.941406 474.996094 347.394531 476.367188 C 348.847656 477.742188 350.367188 479.035156 351.949219 480.257812 C 353.527344 481.480469 355.164062 482.621094 356.859375 483.679688 L 646.980469 666.894531 C 648.667969 667.964844 650.398438 668.953125 652.179688 669.855469 C 653.960938 670.757812 655.78125 671.566406 657.640625 672.289062 C 659.5 673.011719 661.390625 673.636719 663.3125 674.171875 C 665.234375 674.703125 667.179688 675.140625 669.140625 675.480469 C 671.105469 675.824219 673.082031 676.066406 675.070312 676.210938 C 677.058594 676.355469 679.046875 676.402344 681.039062 676.351562 C 683.03125 676.296875 685.011719 676.148438 686.988281 675.898438 C 688.964844 675.648438 690.925781 675.300781 692.867188 674.859375 C 694.808594 674.414062 696.722656 673.875 698.613281 673.242188 C 700.5 672.605469 702.351562 671.882812 704.171875 671.0625 C 705.988281 670.246094 707.757812 669.339844 709.484375 668.34375 C 711.214844 667.351562 712.886719 666.273438 714.507812 665.113281 C 716.128906 663.953125 717.6875 662.714844 719.1875 661.402344 C 720.6875 660.085938 722.117188 658.699219 723.480469 657.242188 C 724.84375 655.785156 726.128906 654.261719 727.339844 652.675781 C 728.554688 651.089844 729.6875 649.449219 730.738281 647.75 Z M 730.738281 647.75 "/>
</g>
</g>
</g>
</g>
</svg>
